# xmcd
#
# Track frame offsets:
#	150
#	9557
#	24825
#	42195
#	57521
#	65912
#	81532
#	97345
#	113222
#	129188
#	145067
#	157971
#	169141
#	179593
#	193397
#	208656
#	226996
#	242797
#
# Disc length: 3477 seconds
#
# Revision: 1
# Processed by: cddbd v1.5.2PL0 Copyright (c) Steve Scherf et al.
# Submitted via: audiograbber 1.83.01
#
DISCID=060d9312
DTITLE=Zillertal Duo - Lebensfreude
DYEAR=2007
DGENRE=Volksmusik
TTITLE0=Es ist so schön, ein Musikant zu sein
TTITLE1=Da Kugilate - Zillertaler Ländler
TTITLE2=Mei Dianal hat ihr Fenster auf da Schattnseit
TTITLE3=Es gibt ja nur a Zillertol alluan
TTITLE4=Der Gerlosberger
TTITLE5=An Zillachtol wearn se a schu modern
TTITLE6=Der ganz Feine
TTITLE7=Skifahrerlied
TTITLE8=Ja wenn da Schnee vu da Alm weggageaht
TTITLE9=Ein Prost mit harmonischen Klang - Grüass die Gott Frau Wirtin
TTITLE10=Da Doppelchörige
TTITLE11=Harfenklänge aus dem Zillertal
TTITLE12=Die Jugendzeit geht schnell vorbei
TTITLE13=Der Oberkrainer
TTITLE14=Da Hahnpfalzwalzer
TTITLE15=S'Diandl ischt wundaschian
TTITLE16=Stilluppa Blues
TTITLE17=Erzherzog-Johann-Jodler
EXTD=
EXTT0=
EXTT1=
EXTT2=
EXTT3=
EXTT4=
EXTT5=
EXTT6=
EXTT7=
EXTT8=
EXTT9=
EXTT10=
EXTT11=
EXTT12=
EXTT13=
EXTT14=
EXTT15=
EXTT16=
EXTT17=
PLAYORDER=
